<svg version="1.2" xmlns="http://www.w3.org/2000/svg" viewBox="0 0 16 16" width="16" height="16"><style>.a{fill:#ff8080}.b{fill:#fff}</style><path fill-rule="evenodd" class="a" d="m16 10.7c0 0.9-0.8 1.7-1.8 1.7h-10.6l-3.6 3.6v-14.2c0-1 0.8-1.8 1.8-1.8h12.4c1 0 1.8 0.8 1.8 1.8z"/><path fill-rule="evenodd" class="b" d="m7.3 9.3c0 0.4 0.3 0.7 0.7 0.7 0.4 0 0.7-0.3 0.7-0.7 0-0.3-0.3-0.6-0.7-0.6-0.4 0-0.7 0.3-0.7 0.6zm0-6.3v4.3c0 0.4 0.3 0.7 0.7 0.7 0.4 0 0.7-0.3 0.7-0.7v-4.3c0-0.4-0.3-0.7-0.7-0.7-0.4 0-0.7 0.3-0.7 0.7z"/></svg>