<?xml version="1.0" encoding="UTF-8"?>
<svg width="178px" height="150px" viewBox="0 0 178 150" version="1.1" xmlns="http://www.w3.org/2000/svg" xmlns:xlink="http://www.w3.org/1999/xlink">
    <!-- Generator: Sketch 51.3 (57544) - http://www.bohemiancoding.com/sketch -->
    <title>Group 3</title>
    <desc>Created with Sketch.</desc>
    <defs></defs>
    <g id="04-Oct-2018" stroke="none" stroke-width="1" fill="none" fill-rule="evenodd">
        <g id="SP_option1" transform="translate(-275.000000, -6045.000000)" fill="#F99C2C" fill-rule="nonzero">
            <g id="Group-3" transform="translate(275.000000, 6045.000000)">
                <g id="Group-2" transform="translate(24.000000, 10.000000)">
                    <path d="M126.693125,0.234375 L78.340625,0.009375 L76.425625,0 L74.511875,0.009375 L26.15875,0.234375 L0,46.983125 L74.81875,137.383125 L76.43,139.326875 L78.04,137.383125 L152.856875,46.983125 L126.693125,0.234375 Z M72.981875,3.67625 L45.213125,43.376875 L29.898125,3.87625 L72.981875,3.67625 Z M26.93,6.3475 L41.99375,45.199375 L5.3175,44.9725 L26.93,6.3475 Z M6.115,48.635625 L43.38375,48.86625 L71.04625,127.09 L6.115,48.635625 Z M74.401875,125.6 L47.27375,48.893125 L74.57375,49.06125 L74.401875,125.6 Z M74.580625,45.3975 L48.383125,45.236875 L74.530625,7.85 L74.665,7.656875 L74.595625,38.323125 L74.580625,45.3975 Z M147.531875,44.9725 L110.858125,45.195625 L125.921875,6.34375 L147.531875,44.9725 Z M122.951875,3.87625 L107.634375,43.376875 L79.86625,3.67625 L122.951875,3.87625 Z M78.254375,38.32375 L78.186875,7.6575 L78.323125,7.850625 L104.46875,45.2375 L78.273125,45.398125 L78.254375,38.32375 Z M78.279375,49.0575 L105.57625,48.889375 L78.45125,125.59625 L78.279375,49.0575 Z M81.80375,127.09 L109.4675,48.86625 L146.738125,48.635625 L81.80375,127.09 Z" id="Shape"></path>
                </g>
                <path d="M171.142857,6.85714286 L178,6.85714286 L178,9.14285714 L171.142857,9.14285714 L171.142857,16 L168.857143,16 L168.857143,9.14285714 L162,9.14285714 L162,6.85714286 L168.857143,6.85714286 L168.857143,0 L171.142857,0 L171.142857,6.85714286 Z" id="Combined-Shape"></path>
                <path d="M23.1428571,74.8571429 L30,74.8571429 L30,77.1428571 L23.1428571,77.1428571 L23.1428571,84 L20.8571429,84 L20.8571429,77.1428571 L14,77.1428571 L14,74.8571429 L20.8571429,74.8571429 L20.8571429,68 L23.1428571,68 L23.1428571,74.8571429 Z" id="Combined-Shape"></path>
                <path d="M9.14285714,46.8571429 L16,46.8571429 L16,49.1428571 L9.14285714,49.1428571 L9.14285714,56 L6.85714286,56 L6.85714286,49.1428571 L0,49.1428571 L0,46.8571429 L6.85714286,46.8571429 L6.85714286,40 L9.14285714,40 L9.14285714,46.8571429 Z" id="Combined-Shape"></path>
            </g>
        </g>
    </g>
</svg>